<svg width="18" height="23" viewBox="0 0 18 23" fill="none" xmlns="http://www.w3.org/2000/svg">
<path d="M17.9999 9.12092C18.003 7.92634 17.7734 6.74283 17.324 5.63795C16.8746 4.53308 16.2144 3.52849 15.3809 2.68154C13.6976 0.971039 11.411 0.00647242 9.02416 3.24543e-05C6.63728 -0.00640751 4.34564 0.945806 2.65335 2.6472C0.961071 4.34859 0.00677724 6.65979 0.000405857 9.07236C-0.0207317 11.8751 0.784224 14.6208 2.31268 16.9594C3.84115 19.2981 6.02389 21.1237 8.58273 22.2038C8.71354 22.2637 8.85555 22.2944 8.99914 22.2939C9.14377 22.2941 9.28678 22.2631 9.41854 22.2028C11.9696 21.126 14.1469 19.308 15.6746 16.979C17.2023 14.6501 18.0116 11.9152 17.9999 9.12092ZM8.99914 20.1692C6.88903 19.2302 5.09965 17.6832 3.85481 15.7217C2.60997 13.7602 1.96493 11.4713 2.00035 9.14116C2.00035 8.21217 2.18138 7.29228 2.5331 6.43401C2.88482 5.57573 3.40035 4.79589 4.05024 4.13899C4.70014 3.4821 5.47168 2.96102 6.32082 2.60552C7.16995 2.25001 8.08004 2.06703 8.99914 2.06703C9.91823 2.06703 10.8283 2.25001 11.6775 2.60552C12.5266 2.96102 13.2981 3.4821 13.948 4.13899C14.5979 4.79589 15.1135 5.57573 15.4652 6.43401C15.8169 7.29228 15.9979 8.21217 15.9979 9.14116C15.9979 9.16241 15.9979 9.18669 15.9979 9.20692C16.0222 11.5263 15.3718 13.8017 14.1275 15.7506C12.8833 17.6995 11.1 19.236 8.99914 20.1692ZM8.99914 5.09418C8.20724 5.09418 7.43313 5.33153 6.7747 5.77622C6.11626 6.2209 5.60307 6.85296 5.30003 7.59245C4.99699 8.33194 4.9177 9.14565 5.07219 9.93069C5.22668 10.7157 5.60801 11.4368 6.16796 12.0028C6.72792 12.5688 7.44134 12.9542 8.21802 13.1104C8.9947 13.2665 9.79974 13.1864 10.5314 12.8801C11.263 12.5738 11.8883 12.0551 12.3282 11.3895C12.7682 10.724 13.003 9.94158 13.003 9.14116C13.003 8.06783 12.5812 7.03847 11.8303 6.27951C11.0794 5.52055 10.061 5.09418 8.99914 5.09418ZM8.99914 11.1647C8.60319 11.1647 8.21614 11.046 7.88692 10.8236C7.5577 10.6013 7.30111 10.2853 7.14958 9.91552C6.99806 9.54577 6.95842 9.13892 7.03566 8.7464C7.11291 8.35388 7.30357 7.99333 7.58355 7.71034C7.86353 7.42734 8.22024 7.23463 8.60858 7.15655C8.99692 7.07847 9.39944 7.11854 9.76525 7.2717C10.1311 7.42485 10.4437 7.68421 10.6637 8.01697C10.8837 8.34973 11.0011 8.74095 11.0011 9.14116C11.0011 9.67782 10.7902 10.1925 10.4147 10.572C10.0393 10.9515 9.53009 11.1647 8.99914 11.1647Z" fill="black"/>
</svg>
