<svg width="18" height="18" viewBox="0 0 18 18" fill="none" xmlns="http://www.w3.org/2000/svg">
<path d="M12.3495 11.7938L12.7699 11.3712L11.7936 10.3788L11.3733 10.8014L12.3495 11.7938ZM14.1817 11.1942L15.9451 12.1632L16.6064 10.9338L14.843 9.9648L14.1817 11.1942ZM16.2846 14.089L14.9734 15.4068L15.9496 16.3991L17.2608 15.0814L16.2846 14.089ZM14.1744 15.8311C12.8362 15.9571 9.37377 15.8448 5.62504 12.0772L4.64882 13.0696C8.73966 17.181 12.6332 17.3817 14.3029 17.2244L14.1744 15.8311ZM5.62504 12.0772C2.05171 8.4859 1.4598 5.46534 1.38611 4.15493L0.00382934 4.23433C0.096555 5.88362 0.82949 9.23104 4.64882 13.0696L5.62504 12.0772ZM6.89447 6.3113L7.15919 6.04523L6.18302 5.05289L5.91829 5.31894L6.89447 6.3113ZM7.36992 2.65378L6.20605 1.08232L5.0977 1.92099L6.26156 3.49245L7.36992 2.65378ZM2.29154 0.740287L0.842781 2.19633L1.81899 3.18868L3.26775 1.73264L2.29154 0.740287ZM6.40638 5.81512C5.91829 5.31895 5.91762 5.31961 5.91696 5.32028C5.91674 5.3205 5.91607 5.32118 5.91562 5.32164C5.91472 5.32256 5.91379 5.3235 5.91286 5.32446C5.91099 5.32639 5.90905 5.3284 5.90705 5.33049C5.90306 5.33467 5.89883 5.33921 5.89438 5.3441C5.88547 5.35387 5.8757 5.36504 5.86523 5.37766C5.84431 5.4029 5.8206 5.43398 5.79567 5.47116C5.74571 5.54569 5.69127 5.64424 5.64508 5.76817C5.55081 6.02104 5.50027 6.35439 5.56363 6.76718C5.68753 7.57444 6.23757 8.64077 7.64654 10.0568L8.62272 9.06442C7.3042 7.73925 6.9901 6.93281 6.93176 6.55264C6.90398 6.37171 6.93278 6.28266 6.94072 6.26158C6.94551 6.24853 6.94782 6.2472 6.94192 6.25611C6.93896 6.26047 6.93407 6.26729 6.92641 6.27647C6.92262 6.28107 6.9181 6.28628 6.91284 6.29208C6.91016 6.29498 6.90739 6.29804 6.90426 6.30124C6.90278 6.30284 6.90121 6.30447 6.89955 6.30615C6.89872 6.30699 6.89789 6.30784 6.89706 6.3087C6.89669 6.30913 6.89604 6.30978 6.89576 6.31C6.89512 6.31065 6.89447 6.3113 6.40638 5.81512ZM7.64654 10.0568C9.05598 11.4733 10.1159 12.0246 10.9158 12.1486C11.3246 12.212 11.6543 12.1614 11.9043 12.0673C12.0269 12.0211 12.1245 11.9667 12.1984 11.9167C12.2353 11.8917 12.2661 11.8679 12.2911 11.8469C12.3037 11.8365 12.3148 11.8267 12.3245 11.8177C12.3293 11.8133 12.3339 11.8091 12.338 11.805C12.3401 11.803 12.3421 11.801 12.344 11.7992C12.3449 11.7982 12.3459 11.7973 12.3468 11.7964C12.3473 11.7959 12.348 11.7952 12.3482 11.7951C12.3488 11.7944 12.3495 11.7938 11.8614 11.2975C11.3733 10.8014 11.3739 10.8007 11.3746 10.8001C11.3748 10.7999 11.3754 10.7992 11.3759 10.7988C11.3767 10.7979 11.3775 10.7971 11.3784 10.7962C11.3801 10.7947 11.3817 10.7931 11.3833 10.7915C11.3865 10.7884 11.3895 10.7856 11.3924 10.7829C11.3981 10.7777 11.4033 10.7731 11.4079 10.7694C11.4169 10.7617 11.4237 10.7569 11.4278 10.754C11.4364 10.7482 11.4347 10.7508 11.421 10.7559C11.3984 10.7644 11.3078 10.7936 11.1258 10.7654C10.7443 10.7063 9.94087 10.3891 8.62272 9.06442L7.64654 10.0568ZM6.20605 1.08232C5.26521 -0.187967 3.41515 -0.388971 2.29154 0.740287L3.26775 1.73264C3.7585 1.23942 4.63008 1.28962 5.0977 1.92099L6.20605 1.08232ZM1.38611 4.15493C1.36796 3.83202 1.51447 3.49473 1.81899 3.18868L0.842781 2.19633C0.346829 2.69477 -0.0430688 3.40036 0.00382934 4.23433L1.38611 4.15493ZM14.9734 15.4068C14.7198 15.6617 14.4478 15.8053 14.1744 15.8311L14.3029 17.2244C14.981 17.1605 15.5365 16.8143 15.9496 16.3991L14.9734 15.4068ZM7.15919 6.04523C8.0679 5.13195 8.13546 3.68738 7.36992 2.65378L6.26156 3.49245C6.634 3.99529 6.57862 4.65529 6.18302 5.05289L7.15919 6.04523ZM15.9451 12.1632C16.7 12.578 16.8176 13.5533 16.2846 14.089L17.2608 15.0814C18.4979 13.838 18.1164 11.7634 16.6064 10.9338L15.9451 12.1632ZM12.7699 11.3712C13.1243 11.015 13.6948 10.9268 14.1817 11.1942L14.843 9.9648C13.8428 9.4152 12.6015 9.567 11.7936 10.3788L12.7699 11.3712Z" fill="black"/>
</svg>
