<svg width="27" height="27" viewBox="0 0 27 27" fill="none" xmlns="http://www.w3.org/2000/svg">
<path d="M6.01525 8.13173C4.89717 9.24808 4.11238 10.654 3.74895 12.1916C3.38552 13.7292 3.45785 15.3377 3.95781 16.8365C4.45777 18.3353 5.36558 19.665 6.57933 20.6765C7.79309 21.688 9.26474 22.3412 10.8291 22.5628C12.3935 22.7843 13.9886 22.5655 15.4355 21.9308C16.8824 21.2961 18.1238 20.2707 19.0203 18.9697C19.9168 17.6687 20.4329 16.1435 20.5107 14.5655C20.5885 12.9874 20.225 11.4189 19.4609 10.036L21.532 9.58554L22.0135 7.86656L18.3012 4.15425L16.5823 4.63579L16.1318 6.70691C14.5186 5.81722 12.6602 5.47513 10.8359 5.73206C9.01161 5.989 7.31998 6.83107 6.01525 8.13173ZM16.6218 9.54594C17.5309 10.455 18.15 11.6132 18.4008 12.8741C18.6516 14.1349 18.5228 15.4419 18.0309 16.6296C17.5389 17.8173 16.7058 18.8325 15.6369 19.5467C14.5679 20.2609 13.3112 20.6421 12.0257 20.6421C10.7401 20.6421 9.48337 20.2609 8.41445 19.5467C7.34553 18.8325 6.51241 17.8173 6.02044 16.6296C5.52847 15.4419 5.39975 14.1349 5.65055 12.874C5.90135 11.6132 6.52042 10.455 7.42946 9.54594C8.64948 8.32891 10.3024 7.64544 12.0257 7.64544C13.7489 7.64544 15.4018 8.32891 16.6218 9.54594Z" fill="black"/>
</svg>
