<svg width="146" height="81" viewBox="0 0 146 81" fill="none" xmlns="http://www.w3.org/2000/svg">
<circle cx="40.5" cy="40.5" r="39.5" fill="black" stroke="black" stroke-width="2"/>
<circle cx="40.5" cy="40.5" r="36.45" fill="white"/>
<path d="M72.2477 43.4603L72.2477 44.5058C72.2477 45.7836 72.1007 47.0904 71.8067 48.4263C71.5127 49.8203 70.9541 51.069 70.1309 52.1726C69.3665 53.3342 68.2787 54.2635 66.8675 54.9605C65.5151 55.6575 63.7805 56.006 61.6637 56.006L51.6088 56.006C49.492 56.006 47.728 55.6575 46.3168 54.9605C44.9644 54.2635 43.8766 53.3342 43.0534 52.1726C42.289 51.069 41.7598 49.8203 41.4658 48.4263C41.1718 47.0904 41.0248 45.7836 41.0248 44.5058L41.0248 43.4603L72.2477 43.4603ZM63.7805 24.3804C64.7801 24.3804 65.7797 24.5547 66.7793 24.9032C67.7789 25.2517 68.6903 25.8034 69.5135 26.5585C70.3367 27.3136 70.9835 28.2429 71.4539 29.3464C71.9831 30.45 72.2477 31.7568 72.2477 33.267C72.2477 34.8352 72.0125 36.113 71.5421 37.1004C71.0717 38.0878 70.4837 38.8719 69.7781 39.4527C69.1313 40.0335 68.3963 40.4401 67.5731 40.6724C66.7499 40.9047 65.9855 41.0209 65.2799 41.0209C64.8683 41.0209 64.3097 40.9918 63.6041 40.9338C62.8985 40.9338 62.3105 40.8466 61.8401 40.6724C62.1929 40.2658 62.4575 39.8883 62.6339 39.5398C62.8103 39.1913 62.8985 38.7557 62.8985 38.233C62.8985 36.5486 61.8107 35.7064 59.635 35.7064L55.225 35.7064C55.1074 35.2417 55.0486 34.6609 55.0486 33.9639C55.0486 33.1508 55.1368 32.1924 55.3132 31.0889C55.5484 29.9853 55.9894 28.9399 56.6362 27.9525C57.283 26.9651 58.165 26.1229 59.2823 25.4259C60.3995 24.7289 61.8989 24.3804 63.7805 24.3804ZM39.5254 43.4603L39.5254 44.5058C39.5254 45.7836 39.3784 47.0904 39.0844 48.4263C38.7904 49.8203 38.2318 51.069 37.4086 52.1726C36.6442 53.3342 35.5564 54.2635 34.1452 54.9605C32.7928 55.6575 31.0582 56.006 28.9414 56.006L18.8865 56.006C16.7697 56.006 15.0057 55.6575 13.5945 54.9605C12.2421 54.2635 11.1543 53.3342 10.3311 52.1726C9.56671 51.069 9.03751 49.8203 8.74351 48.4263C8.44951 47.0904 8.30251 45.7836 8.30251 44.5058L8.30251 43.4603L39.5254 43.4603ZM16.5933 24.3804C18.4161 24.3804 19.8861 24.7289 21.0033 25.4259C22.1793 26.1229 23.0908 26.9651 23.7376 27.9525C24.3844 28.9399 24.796 29.9853 24.9724 31.0889C25.2076 32.1924 25.3252 33.1508 25.3252 33.9639C25.3252 34.6609 25.2664 35.2417 25.1488 35.7064L20.7387 35.7064C18.5631 35.7064 17.4753 36.5486 17.4753 38.233C17.4753 38.7557 17.5635 39.1913 17.7399 39.5398C17.9163 39.8883 18.1809 40.2658 18.5337 40.6724C18.0633 40.8466 17.4753 40.9338 16.7697 40.9338C16.0641 40.9918 15.5055 41.0209 15.0939 41.0209C14.3883 41.0209 13.6239 40.9047 12.8007 40.6724C11.9775 40.4401 11.2131 40.0335 10.5075 39.4527C9.86071 38.9299 9.30211 38.1749 8.83171 37.1875C8.36131 36.2001 8.12611 34.9513 8.12611 33.4412C8.12611 31.873 8.39071 30.5081 8.91991 29.3464C9.44911 28.2429 10.0959 27.3136 10.8603 26.5585C11.6835 25.8615 12.5949 25.3097 13.5945 24.9032C14.5941 24.5547 15.5937 24.3804 16.5933 24.3804Z" fill="black"/>
<path d="M38.2691 53.455C39.186 51.8261 41.4782 51.8261 42.3951 53.455L42.9108 54.3712C43.8277 56.0001 42.6816 58.0362 40.8478 58.0362H39.8163C37.9826 58.0362 36.8365 56.0001 37.7534 54.3712L38.2691 53.455Z" fill="black"/>
<path d="M144.03 29.3468L143.653 33.3819H139.813V46.5721H136.236V20.2352H135.671L136.048 16.2H144.783L144.406 20.2352H139.813V29.3468H144.03Z" fill="white"/>
<path d="M126.145 46.5721H122.509L124.576 20.2352H123.887L124.269 16.2H131.273L133.645 46.5721H130.01L129.589 41.3654H126.566L126.145 46.5721ZM126.872 37.3303H129.283L128.096 22.231L126.872 37.3303Z" fill="white"/>
<path d="M120.485 42.5369C120.485 43.7518 120.147 44.7353 119.472 45.4873C118.798 46.2105 117.915 46.5721 116.825 46.5721H114.021C112.931 46.5721 112.048 46.2105 111.373 45.4873C110.698 44.7353 110.361 43.7518 110.361 42.5369V20.2352C110.361 19.0203 110.698 18.0513 111.373 17.3281C112.048 16.576 112.931 16.2 114.021 16.2H116.825C117.915 16.2 118.798 16.576 119.472 17.3281C120.147 18.0513 120.485 19.0203 120.485 20.2352V27.1773H116.786V20.4521C116.786 20.3075 116.721 20.2352 116.591 20.2352H114.255C114.125 20.2352 114.06 20.3075 114.06 20.4521V42.32C114.06 42.4646 114.125 42.5369 114.255 42.5369H116.591C116.721 42.5369 116.786 42.4646 116.786 42.32V33.3385H115.267L115.579 29.3034H120.485V42.5369Z" fill="white"/>
<path d="M107.324 46.5721H97.2V33.4615C97.2 32.0441 97.5716 30.9136 98.3149 30.0699C99.088 29.1925 100.054 28.7538 101.214 28.7538H102.864C103.013 28.7538 103.087 28.6694 103.087 28.5007V21.1608C103.087 20.992 103.013 20.9077 102.864 20.9077H97.2V16.2H103.132C104.38 16.2 105.391 16.6387 106.164 17.5161C106.937 18.3598 107.324 19.4903 107.324 20.9077V28.7538C107.324 30.1712 106.937 31.3185 106.164 32.196C105.391 33.0396 104.38 33.4615 103.132 33.4615H101.66C101.511 33.4615 101.437 33.5458 101.437 33.7146V41.8644H107.324V46.5721Z" fill="white"/>
<path d="M138.783 64.7787C137.514 64.7787 136.571 64.4988 135.955 63.9389C135.345 63.3719 135.019 62.4824 134.977 61.2704C134.97 61.1003 135.016 60.9657 135.115 60.8664C135.221 60.7601 135.36 60.707 135.53 60.707C135.7 60.707 135.834 60.7566 135.934 60.8558C136.033 60.955 136.09 61.0897 136.104 61.2598C136.132 62.1528 136.345 62.7765 136.742 63.1309C137.138 63.4853 137.819 63.6625 138.783 63.6625H141.845C142.851 63.6625 143.549 63.4675 143.939 63.0777C144.336 62.6808 144.534 61.9863 144.534 60.994C144.534 59.9876 144.336 59.2895 143.939 58.8997C143.549 58.5028 142.851 58.3043 141.845 58.3043H138.932C137.684 58.3043 136.77 58.0137 136.189 57.4325C135.608 56.8514 135.317 55.9406 135.317 54.7003C135.317 53.46 135.604 52.5493 136.178 51.9681C136.759 51.3869 137.67 51.0963 138.91 51.0963H141.887C143.078 51.0963 143.96 51.3621 144.534 51.8937C145.115 52.4252 145.427 53.2615 145.47 54.4026C145.484 54.5727 145.438 54.7109 145.332 54.8173C145.232 54.9165 145.094 54.9661 144.917 54.9661C144.754 54.9661 144.623 54.9165 144.524 54.8173C144.424 54.718 144.368 54.5834 144.354 54.4133C144.325 53.5982 144.127 53.0277 143.758 52.7016C143.39 52.3756 142.766 52.2126 141.887 52.2126H138.91C137.982 52.2126 137.337 52.3969 136.975 52.7654C136.614 53.1269 136.433 53.7718 136.433 54.7003C136.433 55.6288 136.614 56.2773 136.975 56.6458C137.344 57.0073 137.996 57.188 138.932 57.188H141.845C143.163 57.188 144.127 57.4963 144.736 58.1129C145.346 58.7225 145.651 59.6828 145.651 60.994C145.651 62.3052 145.346 63.2656 144.736 63.8751C144.127 64.4775 143.163 64.7787 141.845 64.7787H138.783Z" fill="white"/>
<path d="M127.373 64.8C127.132 64.8 126.958 64.6724 126.852 64.4173L121.334 51.8936C121.242 51.6881 121.242 51.518 121.334 51.3833C121.433 51.2487 121.568 51.1636 121.738 51.1282C122.029 51.0573 122.231 51.1636 122.344 51.4471L127.66 63.503H127.266L132.55 51.4471C132.664 51.1636 132.869 51.0573 133.167 51.1282C133.351 51.1636 133.486 51.2487 133.571 51.3833C133.656 51.518 133.656 51.6881 133.571 51.8936L128.032 64.4173C127.926 64.6724 127.745 64.8 127.49 64.8H127.373Z" fill="white"/>
<path d="M111.616 64.8C111.241 64.8 111.053 64.6122 111.053 64.2365V51.6598C111.053 51.2841 111.241 51.0963 111.616 51.0963H119.579C119.955 51.0963 120.143 51.2841 120.143 51.6598C120.143 52.0283 119.955 52.2126 119.579 52.2126H112.169V57.305H117.07C117.446 57.305 117.634 57.4892 117.634 57.8578C117.634 58.2334 117.446 58.4212 117.07 58.4212H112.169V63.6837H119.579C119.955 63.6837 120.143 63.868 120.143 64.2365C120.143 64.6122 119.955 64.8 119.579 64.8H111.616Z" fill="white"/>
<path d="M97.1852 64.8C96.8095 64.8 96.6217 64.6122 96.6217 64.2365V51.6598C96.6217 51.2841 96.8095 51.0963 97.1852 51.0963H102.309C104.074 51.0963 105.357 51.5003 106.158 52.3083C106.966 53.1163 107.37 54.4026 107.37 56.1674V59.7289C107.37 61.4937 106.966 62.7801 106.158 63.588C105.357 64.396 104.074 64.8 102.309 64.8H97.1852ZM97.738 63.6837H102.309C103.273 63.6837 104.042 63.5561 104.616 63.301C105.198 63.0458 105.616 62.6312 105.871 62.0571C106.126 61.476 106.254 60.6999 106.254 59.7289V56.1674C106.254 55.2035 106.126 54.4345 105.871 53.8604C105.616 53.2793 105.198 52.8611 104.616 52.606C104.042 52.3437 103.273 52.2126 102.309 52.2126H97.738V63.6837Z" fill="white"/>
</svg>
