<svg width="242" height="81" viewBox="0 0 242 81" fill="none" xmlns="http://www.w3.org/2000/svg">
<path d="M225.675 42.9202L225.271 43.021C219.087 44.2309 215.659 44.8359 214.987 44.8359C214.382 44.8359 213.777 44.5334 213.172 43.9284C211.289 41.2397 210.348 39.4247 210.348 38.4836C210.348 37.4753 210.886 36.8367 211.962 36.5679C217.81 35.2907 222.616 34.6521 226.38 34.6521C230.212 34.6521 232.531 35.089 233.338 35.9629C235.825 38.45 237.068 39.9625 237.068 40.5002C237.068 41.038 236.732 41.5085 236.06 41.9119C230.817 44.6679 225.406 47.8944 219.826 51.5915C214.314 55.2214 210.55 58.1455 208.533 60.3637C208.533 60.4309 208.701 60.4646 209.038 60.4646C209.441 60.4646 210.92 60.0948 213.474 59.3554C216.096 58.5488 218.482 58.1455 220.633 58.1455C222.784 58.1455 224.229 58.5152 224.969 59.2546C228.397 63.2206 230.111 65.9094 230.111 67.321C230.111 67.8587 229.842 68.1276 229.304 68.1276C228.968 68.1276 228.363 67.8251 227.489 67.2202C226.683 66.6152 225.675 66.3127 224.465 66.3127C223.255 66.3127 222.246 66.4471 221.44 66.716C213.642 69.0015 207.391 70.1442 202.685 70.1442C201.946 70.1442 200.904 69.472 199.56 68.1276C198.215 66.716 197.543 65.338 197.543 63.9936C197.543 61.8426 199.022 59.6243 201.979 57.3388C204.937 54.9861 209.172 52.3309 214.684 49.3733C221.204 45.8778 224.868 43.7268 225.675 42.9202Z" fill="white"/>
<path d="M210.402 22.5525L215.544 22.4516C222.199 22.4516 227.038 23.3927 230.063 25.2749C231.542 25.7454 232.282 26.3504 232.282 27.0898C232.282 27.6276 231.609 27.9973 230.265 28.1989C228.988 28.4006 224.45 28.9384 216.653 29.8122C208.923 30.6189 203.612 31.0894 200.722 31.2238C199.445 31.2911 196.487 33.5093 191.849 37.8786C187.278 42.2479 182.909 47.0541 178.741 52.2973C174.573 57.5404 172.489 61.2039 172.489 63.2877C172.489 63.6238 172.658 63.9263 172.994 64.1952C173.33 64.3969 173.733 64.4977 174.204 64.4977C174.741 64.4977 175.548 64.296 176.624 63.8927C189.395 56.3641 201.797 48.1297 213.83 39.1894C214.435 39.6599 214.737 40.2313 214.737 40.9035C214.737 41.5757 214.401 42.2479 213.729 42.9201C213.057 43.5251 212.048 44.4326 210.704 45.6425C209.427 46.8525 207.007 49.0371 203.444 52.1965C199.882 55.3558 196.521 58.179 193.361 60.6662C184.892 67.5226 178.976 71.4886 175.615 72.5641C174.405 72.9002 172.96 73.0682 171.28 73.0682C169.666 73.0682 168.154 72.228 166.742 70.5475C165.398 68.867 164.726 66.5815 164.726 63.6911C164.726 60.8006 166.574 56.633 170.271 51.1882C174.036 45.7433 179.144 40.1641 185.597 34.4504C186.202 33.9799 186.505 33.5429 186.505 33.1396C186.505 32.7363 185.799 32.5346 184.387 32.5346L178.035 32.7363C169.095 32.7363 164.49 31.728 164.221 29.7114C162.138 29.3081 161.096 28.7031 161.096 27.8965C161.096 27.6276 161.23 27.4931 161.499 27.4931C161.768 27.4259 162.003 27.3923 162.205 27.3923C162.406 27.3251 162.743 27.2579 163.213 27.1906C163.684 27.1234 167.381 26.5857 174.304 25.5774C181.295 24.5691 189.227 23.7288 198.1 23.0566L205.058 13.7803C205.461 12.9736 206.872 12.5703 209.292 12.5703C211.712 12.5703 212.922 13.0745 212.922 14.0828C212.922 14.4189 212.653 15.0238 212.116 15.8977L209.595 19.4267C209.259 20.5023 209.057 21.3089 208.99 21.8467C208.99 22.3172 209.46 22.5525 210.402 22.5525Z" fill="white"/>
<path d="M158.649 38.685C156.902 38.685 153.944 40.5 149.776 44.1299C145.609 47.6925 143.525 49.8772 143.525 50.6838C143.525 50.8182 143.626 50.8855 143.827 50.8855C145.306 50.8855 148.23 49.2386 152.6 45.9448C157.036 42.651 159.254 40.3992 159.254 39.1892C159.254 38.8531 159.053 38.685 158.649 38.685ZM137.173 70.9506C131.997 70.9506 129.409 67.7913 129.409 61.4726C129.409 57.5066 131.123 53.3054 134.551 48.8689C138.046 44.3651 142.147 40.7016 146.852 37.8784C151.558 34.988 155.725 33.5427 159.355 33.5427C160.968 33.5427 162.447 34.1813 163.792 35.4585C165.203 36.7357 165.909 37.9792 165.909 39.1892C165.909 41.4075 164.329 43.9282 161.17 46.7514C158.011 49.5074 154.683 51.7593 151.188 53.507C147.76 55.1875 145.474 56.0278 144.332 56.0278C143.256 56.0278 142.449 55.5236 141.912 54.5153C141.643 54.3137 141.273 54.2128 140.802 54.2128C140.332 54.2128 139.559 55.1203 138.483 56.9353C137.408 58.683 136.87 60.1282 136.87 61.2709C136.87 62.3465 137.273 63.0187 138.08 63.2875C143.189 63.2875 148.734 61.8087 154.717 58.851C160.7 55.8261 168.968 50.5494 179.521 43.0207C180.261 42.483 181.37 41.6763 182.849 40.6008C184.395 39.5253 185.302 38.8867 185.571 38.685C186.176 39.1556 186.478 39.727 186.478 40.3992C186.478 41.0714 186.176 41.6763 185.571 42.2141C182.21 45.5751 177.841 49.3394 172.463 53.507C167.153 57.6747 161.036 61.6406 154.112 65.405C147.188 69.1021 141.542 70.9506 137.173 70.9506Z" fill="white"/>
<path d="M89.2744 50.2807C92.9715 47.7264 96.8367 44.9704 100.87 42.0127C98.7188 40.5338 97.3408 39.0886 96.7358 37.677C96.5342 37.2065 96.4333 36.8704 96.4333 36.6687C96.4333 35.3243 96.8703 34.4504 97.7441 34.0471C98.618 33.5766 100.03 33.3413 101.979 33.3413C102.718 33.3413 104.903 34.2488 108.533 36.0637C112.163 37.8787 114.448 38.7861 115.389 38.7861C116.398 38.7861 117.776 38.5172 119.523 37.9795C121.271 37.3745 122.649 37.072 123.657 37.072C124.733 37.072 125.506 37.3073 125.976 37.7778C127.657 39.9961 128.497 41.3405 128.497 41.811C128.497 42.2816 128.262 42.6849 127.791 43.021C127.388 43.2899 126.01 44.2309 123.657 45.8442C121.372 47.4575 119.12 49.1044 116.902 50.7849C114.684 52.4654 112.6 54.3475 110.65 56.4314C108.701 58.5152 107.726 60.1957 107.726 61.4728C107.726 61.6745 107.894 61.7753 108.23 61.7753C111.86 61.7753 124.094 54.4147 144.933 39.6936C145.403 39.6936 145.638 40.1305 145.638 41.0044C145.638 41.811 142.983 44.7015 137.673 49.6758C132.362 54.5828 126.346 59.4226 119.624 64.1953C112.969 68.9006 108.13 71.2533 105.105 71.2533C100.399 71.2533 98.0466 68.9006 98.0466 64.1953C98.0466 61.6409 98.8869 59.1874 100.567 56.8347C102.315 54.4148 105.945 51.1882 111.457 47.155C110.314 47.155 108.768 46.8861 106.819 46.3484C104.869 45.7434 103.626 45.0376 103.088 44.2309C101.34 45.777 98.3155 48.365 94.0134 51.9948C93.0051 52.7343 91.6943 53.104 90.0811 53.104C88.4678 53.104 87.6611 52.8687 87.6611 52.3982C87.6611 51.8604 88.1989 51.1546 89.2744 50.2807Z" fill="white"/>
<path d="M94.8472 25.3754C94.8472 29.4086 93.2004 34.2821 89.9066 39.9958C86.68 45.7095 82.5124 51.2215 77.4037 56.5319C72.295 61.8423 66.1107 66.3796 58.851 70.1439C51.5912 73.9082 44.4659 75.824 37.475 75.8912C37.0717 75.8912 36.3995 75.6896 35.4584 75.2862C34.5846 74.9501 33.8452 74.5132 33.2402 73.9755C31.7613 72.5638 31.0219 70.48 31.0219 67.724C31.4925 65.2369 32.5344 63.2203 34.1476 61.6742C34.6854 61.1364 34.9543 60.8003 34.9543 60.6659H34.8535C34.719 60.6659 34.3829 60.834 33.8452 61.1701L15.5949 74.7821C14.385 76.1265 13.2086 76.7987 12.0659 76.7987C11.7298 76.7987 11.3601 76.6979 10.9568 76.4962L8.53686 74.1771C8.3352 74.0427 8.23437 73.673 8.23437 73.068C8.23437 72.5302 8.57047 71.6228 9.24267 70.3456C9.91486 69.0684 11.2929 66.9174 13.3767 63.8925C15.4605 60.8004 18.4518 56.6999 22.3506 51.5912C26.3165 46.4825 31.4252 40.836 37.6767 34.6518C43.9954 28.4003 50.6837 22.653 57.7418 17.4099C59.1535 16.0655 60.4979 15.3933 61.775 15.3933C62.1111 15.3933 62.6825 15.6286 63.4891 16.0991C64.5647 16.6369 65.1024 17.1746 65.1024 17.7124C65.1024 18.2501 64.9344 18.6535 64.5983 18.9223L57.5402 25.7788C41.0041 42.8526 30.5178 54.4481 26.0813 60.5651C25.5435 61.1701 25.2746 61.607 25.2746 61.8759C25.2746 62.0775 25.3418 62.1784 25.4763 62.1784C25.6779 62.1784 25.8796 62.0775 26.0813 61.8759C31.3916 58.3132 37.2398 55.053 43.6257 52.0954C44.0962 51.8265 44.4995 51.692 44.8356 51.692C45.2389 51.692 45.5414 51.8265 45.7431 52.0954L47.6588 54.4145C47.9277 54.8178 48.0622 55.2211 48.0622 55.6244C48.0622 55.9605 47.9277 56.2294 47.6588 56.4311L46.5497 57.641C42.5837 61.5398 40.5335 64.0269 40.3991 65.1024C40.4663 65.4385 40.6344 65.6066 40.9032 65.6066C44.8692 65.6066 50.7174 63.2203 58.4476 58.4476C66.1779 53.675 73.236 48.0286 79.6219 41.5082C86.0078 34.9207 89.2008 29.4759 89.2008 25.1738C89.2008 23.6949 88.4277 22.1825 86.8817 20.6364C85.4028 19.0904 83.8232 17.8468 82.1427 16.9057C77.975 14.6875 72.7991 13.5784 66.6149 13.5784C60.4306 13.5784 54.5153 14.2842 48.8688 15.6958C43.2223 17.0402 38.2145 18.7207 33.8452 20.7373C29.5431 22.7539 25.6107 24.9049 22.0481 27.1904C18.5526 29.4086 15.8638 31.4589 13.9817 33.341C12.0995 35.1559 11.1584 36.5003 11.1584 37.3742C11.1584 37.5759 11.2593 37.6767 11.4609 37.6767C13.5447 37.6767 17.4771 36.2315 23.258 33.341C29.1062 30.4506 32.9713 28.0979 34.8535 26.2829C36.534 25.073 37.6095 24.468 38.08 24.468C38.3489 24.468 38.4833 24.7369 38.4833 25.2746C38.4833 25.7452 38.0464 26.619 37.1725 27.8962C36.2987 29.1734 35.0215 30.7194 33.341 32.5344C31.6605 34.2821 29.812 36.0298 27.7954 37.7775C25.7788 39.458 23.4597 40.9033 20.8381 42.1132C18.2165 43.3232 15.8974 43.9281 13.8808 43.9281C11.8642 43.9281 9.74682 43.0543 7.52856 41.3066C5.3103 39.4916 4.20117 37.2398 4.20117 34.551C4.20117 29.2406 7.59578 24.1655 14.385 19.3257C21.1742 14.4858 29.0389 10.7551 37.9792 8.13354C46.9867 5.51196 54.6497 4.20117 60.9684 4.20117C67.2871 4.20117 72.463 4.80615 76.4962 6.01611C80.5294 7.22607 83.6215 8.6713 85.7726 10.3518C87.9908 12.0323 89.8393 13.9481 91.3182 16.0991C93.4692 19.3257 94.6456 22.4178 94.8472 25.3754Z" fill="white"/>
<path fill-rule="evenodd" clip-rule="evenodd" d="M194.271 59.9453C193.685 61.1922 193.342 62.5408 193.342 63.9937C193.342 66.8184 194.762 69.1818 196.517 71.0251L196.553 71.0622L196.589 71.0984C197.373 71.8824 198.206 72.6116 199.072 73.1704C199.861 73.6797 201.129 74.3455 202.685 74.3455C207.978 74.3455 214.675 73.0767 222.621 70.7477L222.695 70.7261L222.768 70.7017C223.007 70.622 223.531 70.514 224.465 70.514C224.72 70.514 224.862 70.546 224.921 70.5637C224.951 70.5726 224.965 70.5794 224.968 70.5809C224.969 70.5813 224.969 70.5816 224.97 70.5818C224.97 70.5821 224.97 70.5821 224.97 70.5819L225.033 70.6291L225.098 70.6745C225.618 71.034 226.169 71.3831 226.72 71.6585C227.13 71.8637 228.105 72.3289 229.304 72.3289C230.221 72.3289 231.68 72.097 232.88 70.8968C234.08 69.6966 234.312 68.2375 234.312 67.3211C234.312 66.1849 233.985 65.1664 233.666 64.4025C233.329 63.5955 232.875 62.7829 232.368 61.9873C231.355 60.3976 229.921 58.5597 228.147 56.5072L228.047 56.3918L227.939 56.2839C226.857 55.201 225.53 54.6489 224.371 54.3526C224.101 54.2835 223.825 54.2245 223.546 54.1748C228.525 50.9303 233.348 48.0839 238.015 45.6307L238.12 45.5755L238.222 45.5145C239.527 44.7314 241.27 43.1262 241.27 40.5003C241.27 39.1222 240.623 38.0583 240.436 37.7504L240.427 37.7354C240.124 37.2352 239.75 36.7436 239.381 36.2944C239.22 36.0984 239.045 35.8931 238.857 35.6791L239.371 35.1656L238.577 35.3639C237.952 34.6683 237.203 33.8879 236.349 33.0329C234.975 31.6011 233.061 31.0943 231.771 30.8513C230.247 30.5641 228.417 30.4509 226.38 30.4509C222.192 30.4509 217.057 31.1549 211.065 32.4634L211.004 32.4769L210.943 32.4921C209.826 32.7713 208.537 33.3564 207.538 34.5424C206.506 35.7683 206.147 37.2036 206.147 38.4837C206.147 40.0494 206.826 41.5237 207.325 42.4846C207.497 42.8163 207.688 43.1611 207.898 43.5183C209.041 42.6986 210.182 41.8727 211.319 41.0405C210.672 39.8878 210.348 39.0355 210.348 38.4837C210.348 37.4754 210.886 36.8368 211.962 36.5679C217.81 35.2908 222.616 34.6522 226.38 34.6522C230.212 34.6522 232.531 35.0891 233.338 35.963C233.534 36.1589 233.722 36.3488 233.902 36.5327C234.719 37.3648 235.378 38.073 235.879 38.6572C236.672 39.5823 237.068 40.1967 237.068 40.5003C237.068 41.0381 236.732 41.5086 236.06 41.9119C233.447 43.2854 230.793 44.7756 228.096 46.3828C226.113 47.5649 224.107 48.8103 222.079 50.1189C221.331 50.6012 220.58 51.0921 219.826 51.5916C218.282 52.609 216.874 53.5709 215.604 54.4774C214.535 55.2397 213.564 55.9628 212.69 56.6467C212.677 56.6571 212.664 56.6675 212.65 56.6778C212.284 56.9647 211.935 57.2446 211.604 57.5176C210.588 58.3538 209.732 59.1251 209.038 59.8315C208.859 60.0132 208.691 60.1907 208.534 60.3638C208.534 60.388 208.555 60.4079 208.599 60.4234C208.677 60.4509 208.823 60.4646 209.038 60.4646C209.159 60.4646 209.379 60.431 209.696 60.3638C210.314 60.2327 211.304 59.9739 212.666 59.5874C212.922 59.5146 213.192 59.4373 213.474 59.3555C214.809 58.9448 216.083 58.6386 217.296 58.4371C218.465 58.2427 219.577 58.1455 220.633 58.1455C222.784 58.1455 224.229 58.5152 224.969 59.2547C226.054 60.5098 226.967 61.637 227.709 62.6363C228.068 63.1207 228.387 63.5751 228.666 63.9995C228.85 64.2794 229.016 64.5462 229.165 64.7999C229.186 64.8351 229.206 64.8701 229.226 64.9048C229.253 64.9512 229.279 64.9972 229.304 65.0428C229.842 66.0025 230.111 66.762 230.111 67.3211C230.111 67.8588 229.842 68.1277 229.304 68.1277C228.988 68.1277 228.432 67.8588 227.637 67.3211C227.589 67.2884 227.539 67.2548 227.49 67.2202C227.059 66.8973 226.571 66.6605 226.025 66.51C225.759 66.4364 225.478 66.3834 225.184 66.351C224.953 66.3255 224.713 66.3128 224.465 66.3128C223.255 66.3128 222.246 66.4472 221.44 66.7161C213.642 69.0016 207.391 70.1443 202.685 70.1443C201.946 70.1443 200.904 69.4721 199.56 68.1277C198.215 66.7161 197.543 65.3381 197.543 63.9937C197.543 61.8426 199.022 59.6244 201.98 57.3389C204.937 54.9862 209.172 52.331 214.684 49.3733C214.903 49.2562 215.118 49.1405 215.33 49.0264C217.074 48.0881 218.601 47.2519 219.911 46.5178C222.681 44.9653 224.482 43.8692 225.312 43.2296C225.315 43.2271 225.318 43.2247 225.322 43.2222C225.449 43.124 225.553 43.0367 225.633 42.9602C225.648 42.9465 225.662 42.9332 225.675 42.9202L225.271 43.0211C219.087 44.231 215.659 44.836 214.987 44.836C214.796 44.836 214.606 44.806 214.415 44.746C214.001 44.6155 213.586 44.343 213.172 43.9285C213.098 43.8232 213.026 43.7192 212.955 43.6166L210.704 45.6426C210.686 45.6597 210.667 45.6769 210.649 45.6944C210.411 45.9196 210.134 46.1772 209.82 46.467L209.941 46.6391L210.201 46.8993C210.231 46.9289 210.261 46.9585 210.291 46.9881C209.307 47.5377 208.362 48.0798 207.459 48.6143C206.338 49.6224 205 50.8165 203.444 52.1966C202.342 53.1736 201.26 54.1185 200.196 55.0313C200.186 55.0402 200.176 55.0492 200.165 55.0581C198.13 56.8051 196.165 58.4342 194.271 59.9453ZM225.961 67.7714C225.961 67.7712 225.959 67.7648 225.955 67.7523C225.96 67.7653 225.961 67.7716 225.961 67.7714Z" fill="black"/>
<path fill-rule="evenodd" clip-rule="evenodd" d="M160.707 61.6105C160.589 62.3112 160.524 63.006 160.524 63.6911C160.524 67.2088 161.345 70.5262 163.462 73.1721L163.493 73.2113L163.525 73.2498C165.432 75.5191 168.02 77.2696 171.28 77.2696C173.221 77.2696 175.064 77.0776 176.74 76.6121L176.818 76.5903L176.896 76.5655C179.165 75.8394 181.889 74.2996 184.912 72.2726C188.008 70.1967 191.705 67.412 195.983 63.9496C196.572 63.4853 197.168 63.0099 197.77 62.5236C198.288 60.8356 199.691 59.1074 201.98 57.3389C203.041 56.4949 204.266 55.6121 205.656 54.6903C206.947 53.834 208.38 52.944 209.954 52.0205C211.546 50.5901 212.749 49.4908 213.554 48.7301L216.622 45.969L216.7 45.8909C217.118 45.4724 217.534 44.9787 217.891 44.4123C216.861 44.5928 216.094 44.7157 215.59 44.7808C215.53 44.7885 215.474 44.7954 215.422 44.8015C215.225 44.8245 215.08 44.8359 214.987 44.8359C214.587 44.8359 214.188 44.704 213.788 44.44C213.583 44.3043 213.377 44.1338 213.172 43.9285C213.098 43.8232 213.026 43.7192 212.955 43.6166L210.704 45.6426C209.7 46.5942 207.988 48.1487 205.57 50.306C204.914 50.8918 204.205 51.5219 203.444 52.1965C199.882 55.3559 196.521 58.1791 193.361 60.6662C184.892 67.5227 178.976 71.4886 175.615 72.5642C174.405 72.9003 172.96 73.0683 171.28 73.0683C169.666 73.0683 168.154 72.2281 166.742 70.5476C165.398 68.8671 164.726 66.5816 164.726 63.6911C164.726 62.1594 165.245 60.2689 166.283 58.0197C164.498 59.2351 162.639 60.432 160.707 61.6105ZM216.653 29.8123C208.923 30.6189 203.612 31.0895 200.722 31.2239C199.445 31.2911 196.487 33.5094 191.849 37.8787C187.278 42.248 182.909 47.0542 178.741 52.2974C174.573 57.5405 172.49 61.204 172.49 63.2878C172.49 63.6239 172.658 63.9264 172.994 64.1953C173.33 64.3969 173.733 64.4978 174.204 64.4978C174.741 64.4978 175.548 64.2961 176.624 63.8928C185.585 58.6102 194.365 52.9801 202.962 47.0025C204.773 45.7435 206.576 44.4691 208.37 43.1792C208.394 43.1623 208.418 43.1453 208.441 43.1283C209.174 42.6018 209.904 42.0727 210.634 41.5411C210.863 41.3745 211.091 41.2076 211.32 41.0405C211.294 40.9944 211.268 40.9487 211.243 40.9036C211.055 40.5612 210.896 40.2465 210.767 39.9594C210.768 39.9599 210.767 39.9589 210.767 39.9594C210.766 39.9555 210.763 39.9501 210.761 39.9462C210.761 39.9444 210.76 39.9427 210.759 39.9409C210.486 39.3282 210.349 38.8424 210.349 38.4837C210.349 37.4966 210.864 36.8638 211.895 36.5854C211.917 36.5794 211.939 36.5736 211.962 36.5679C213.445 36.2439 214.862 35.9611 216.211 35.7193L214.351 34.2728C215.229 34.1837 216.142 34.0897 217.089 33.9909L217.105 33.9892L217.121 33.9874C224.83 33.1234 229.489 32.5735 230.905 32.3513C231.747 32.224 232.823 31.99 233.802 31.4517C234.84 30.8811 236.483 29.5047 236.483 27.0899C236.483 25.1102 235.425 23.6788 234.387 22.83C233.591 22.1787 232.68 21.7458 231.838 21.4412C227.82 19.1262 222.189 18.2552 215.598 18.2505L215.618 18.2224L215.694 18.0996C216.014 17.5798 216.32 17.0342 216.56 16.4949C216.746 16.076 217.124 15.17 217.124 14.0828C217.124 12.9192 216.749 11.7631 215.976 10.7966C215.256 9.89607 214.364 9.376 213.631 9.07043C212.247 8.49397 210.668 8.36914 209.292 8.36914C207.91 8.36914 206.509 8.47764 205.265 8.83328C204.206 9.13578 202.566 9.82035 201.548 11.4577L195.88 19.0153C187.696 19.6673 180.302 20.4677 173.705 21.4192L173.699 21.42C166.77 22.4292 163.082 22.9655 162.619 23.0317C162.301 23.0771 161.913 23.1383 161.519 23.2289C161.269 23.2559 161.032 23.2955 160.811 23.3415C160.047 23.4511 159.074 23.7756 158.226 24.6233C157.093 25.7563 156.895 27.1145 156.895 27.8965C156.895 30.4568 158.647 31.9379 159.768 32.5884C160.312 32.9044 160.902 33.152 161.504 33.3498C161.985 33.8812 162.522 34.2949 163.021 34.6044C164.212 35.3441 165.621 35.7869 166.978 36.0841C169.486 36.6333 172.82 36.8901 176.837 36.9316C172.887 40.9062 169.538 44.8609 166.816 48.7991L166.805 48.8136L166.796 48.8282C165.655 50.5073 164.655 52.1106 163.809 53.6336C165.434 52.6176 167.155 51.5079 168.97 50.3046C168.974 50.302 168.978 50.2993 168.982 50.2967C170.234 49.4666 171.531 48.592 172.874 47.6728C175.693 44.0989 179.079 40.4684 183.032 36.7811C183.261 36.5669 183.493 36.3525 183.726 36.1379C183.945 35.9369 184.165 35.7358 184.387 35.5345C184.418 35.5065 184.449 35.4786 184.48 35.4506C184.848 35.1177 185.22 34.7843 185.597 34.4505C186.202 33.9799 186.505 33.543 186.505 33.1397C186.505 32.7364 185.799 32.5347 184.387 32.5347L178.035 32.7364C171.503 32.7364 167.285 32.1981 165.382 31.1215C164.938 30.8699 164.619 30.5889 164.427 30.2785C164.317 30.0993 164.248 29.9103 164.221 29.7115C163.985 29.6657 163.762 29.6174 163.553 29.5664C163.305 29.5062 163.076 29.4424 162.866 29.3749C162.62 29.296 162.4 29.2122 162.205 29.1234C162.08 29.0665 161.966 29.0076 161.862 28.9466C161.722 28.8641 161.601 28.7778 161.499 28.6877C161.23 28.45 161.096 28.1863 161.096 27.8965C161.096 27.6276 161.23 27.4932 161.499 27.4932C161.768 27.426 162.003 27.3924 162.205 27.3924C162.407 27.3252 162.743 27.2579 163.213 27.1907C163.37 27.1684 163.883 27.094 164.753 26.9676C164.877 26.9496 165.008 26.9306 165.146 26.9104C165.895 26.8015 166.857 26.6617 168.031 26.4909C169.695 26.2486 171.786 25.9442 174.304 25.5774C181.295 24.5691 189.227 23.7289 198.1 23.0567L205.058 13.7803C205.461 12.9737 206.873 12.5704 209.292 12.5704C211.712 12.5704 212.922 13.0745 212.922 14.0828C212.922 14.4189 212.653 15.0239 212.116 15.8978L210.364 18.3497C210.369 18.35 210.373 18.3505 210.378 18.351L210.373 18.3511C210.37 18.351 210.367 18.3498 210.364 18.3497L209.595 19.4268C209.259 20.5023 209.057 21.309 208.99 21.8467C208.99 22.3173 209.461 22.5525 210.402 22.5525L215.544 22.4517C220.873 22.4517 225.038 23.0551 228.039 24.2619C228.375 24.397 228.696 24.5396 229.003 24.6898C229.272 24.8214 229.53 24.9589 229.776 25.1022C229.785 25.1074 229.794 25.1126 229.803 25.1178C229.891 25.1694 229.978 25.2218 230.063 25.275C231.542 25.7455 232.282 26.3505 232.282 27.0899C232.282 27.6276 231.609 27.9974 230.265 28.199C230.005 28.24 229.61 28.295 229.081 28.3638C228.872 28.3909 228.643 28.4202 228.393 28.4516C228.286 28.465 228.175 28.4788 228.061 28.4929C227.847 28.5194 227.62 28.5473 227.38 28.5766C225.051 28.8599 221.476 29.2718 216.653 29.8123ZM213.254 34.3834C207.904 34.9191 203.939 35.2598 201.405 35.3961C201.126 35.5506 200.688 35.8329 200.067 36.299C198.773 37.2689 197.009 38.7897 194.741 40.926C190.32 45.153 186.082 49.8133 182.03 54.9116C181.601 55.4512 181.199 55.9681 180.824 56.4627C191.243 50.0657 201.409 43.184 211.324 35.8172L213.254 34.3834ZM201.625 35.2872C201.625 35.2879 201.611 35.2941 201.585 35.3035C201.612 35.2912 201.625 35.2865 201.625 35.2872Z" fill="black"/>
<path fill-rule="evenodd" clip-rule="evenodd" d="M125.263 60.0497C125.226 60.523 125.208 60.9973 125.208 61.4727C125.208 65.0986 125.933 68.5985 128.1 71.2434C130.398 74.0488 133.691 75.1519 137.173 75.1519C142.584 75.1519 148.972 72.9124 156.091 69.111L156.105 69.1036L156.119 69.096C159.129 67.4593 162 65.7806 164.729 64.0592C164.726 63.9375 164.725 63.8148 164.725 63.6909C164.725 62.1591 165.244 60.2687 166.283 58.0195C162.549 60.562 158.492 63.0239 154.112 65.405C147.188 69.1021 141.542 70.9507 137.173 70.9507C131.997 70.9507 129.409 67.7913 129.409 61.4727C129.409 59.6776 129.76 57.8342 130.462 55.9427C128.786 57.3171 127.053 58.6861 125.263 60.0497ZM186.513 43.2744C183.849 46.1225 181.258 49.1301 178.741 52.2972C177.602 53.7294 176.619 55.0437 175.792 56.2402C180.881 52.2624 185.119 48.5999 188.47 45.2565C189.72 44.1028 190.68 42.4561 190.68 40.3992C190.68 39.959 190.636 39.5368 190.553 39.1338C190.127 39.5518 189.704 39.9736 189.282 40.3992C188.822 40.8627 188.365 41.3308 187.91 41.8034C187.541 42.1865 187.173 42.5726 186.807 42.9617C186.728 43.0455 186.649 43.1294 186.57 43.2135C186.551 43.2338 186.532 43.2541 186.513 43.2744ZM178.358 41.3895C179.291 40.4123 180.266 39.431 181.281 38.4456C181.295 38.4325 181.308 38.4193 181.322 38.4062C182.087 37.6642 182.876 36.92 183.687 36.1734C184.31 35.6004 184.947 35.026 185.597 34.4503C185.858 34.2474 186.062 34.0507 186.211 33.8604L185.617 33.3988L183.05 35.3241C182.858 35.4685 182.032 36.0514 180.449 37.1521L180.413 37.1772L177.081 39.6006C177.076 39.6041 177.072 39.6076 177.067 39.6111C173.542 42.1256 170.292 44.3733 167.315 46.3588C168.983 44.1991 170.11 41.8012 170.11 39.1893C170.11 36.2763 168.429 33.9988 166.647 32.3767C164.654 30.4982 162.189 29.3416 159.355 29.3416C154.65 29.3416 149.713 31.1934 144.672 34.2873C139.511 37.387 135.029 41.4006 131.232 46.293L131.227 46.3001C129.953 47.9487 128.852 49.6213 127.953 51.3147C129.603 50.2343 131.351 49.0702 133.197 47.8224C133.198 47.8217 133.199 47.821 133.2 47.8203C135.1 46.536 137.103 45.1631 139.21 43.7015C141.55 41.4725 144.097 39.5315 146.852 37.8785C151.558 34.988 155.725 33.5428 159.355 33.5428C160.969 33.5428 162.447 34.1814 163.792 35.4586C165.203 36.7357 165.909 37.9793 165.909 39.1893C165.909 41.4075 164.33 43.9283 161.17 46.7515C158.011 49.5075 154.683 51.7594 151.188 53.5071C147.76 55.1876 145.474 56.0279 144.332 56.0279C143.34 56.0279 142.577 55.5991 142.042 54.7416C141.997 54.6692 141.954 54.5938 141.912 54.5154C141.708 54.3625 141.446 54.2675 141.126 54.2306C141.024 54.2188 140.916 54.2129 140.803 54.2129C140.416 54.2129 139.824 54.8263 139.029 56.053C138.856 56.3184 138.675 56.6125 138.483 56.9353C138.479 56.9419 138.475 56.9485 138.471 56.9551C137.404 58.6939 136.87 60.1326 136.87 61.271C136.87 62.3465 137.273 63.0187 138.08 63.2876C143.189 63.2876 148.735 61.8088 154.717 58.8511C159.38 56.4932 165.433 52.767 172.873 47.6726C174.507 45.6018 176.33 43.5119 178.345 41.403C178.349 41.3985 178.353 41.394 178.358 41.3895ZM143.531 50.6053C143.527 50.6328 143.525 50.659 143.525 50.6839C143.525 50.8183 143.626 50.8855 143.827 50.8855C143.891 50.8855 143.956 50.8825 144.025 50.8765C144.28 50.8541 144.572 50.7899 144.901 50.6839C145.606 50.4565 146.479 50.0368 147.522 49.4248C148.729 48.7159 150.163 47.749 151.823 46.5242C151.831 46.5184 151.839 46.5126 151.847 46.5068C152.093 46.3252 152.344 46.1378 152.6 45.9449C154.423 44.5909 155.872 43.4129 156.946 42.411C157.697 41.7106 158.265 41.0962 158.649 40.5679C159.053 40.0136 159.254 39.5541 159.254 39.1893C159.254 38.8532 159.053 38.6851 158.649 38.6851C158.118 38.6851 157.474 38.8532 156.718 39.1893C156.242 39.401 155.721 39.6793 155.156 40.0244C153.888 40.7991 152.395 41.9099 150.678 43.3569C150.672 43.3619 150.666 43.367 150.66 43.3721C150.372 43.6153 150.077 43.8679 149.776 44.1299C148.274 45.4141 147.043 46.5192 146.082 47.4453C144.964 48.5233 144.212 49.3587 143.827 49.9515C143.654 50.2188 143.555 50.4367 143.531 50.6053ZM143.102 57.5798C143.101 57.5807 143.098 57.5847 143.091 57.5915C143.099 57.5824 143.103 57.5787 143.102 57.5798Z" fill="black"/>
<path fill-rule="evenodd" clip-rule="evenodd" d="M92.3398 35.2738C92.2645 35.7525 92.2322 36.2231 92.2322 36.6685C92.2322 37.8334 92.6893 38.9 92.8726 39.3277L92.8743 39.3318C93.2248 40.1496 93.6917 40.9146 94.2458 41.6318C91.72 43.4486 89.2669 45.1793 86.8864 46.8241L86.752 46.9169L86.6252 47.0199C85.9561 47.5635 85.2729 48.1971 84.7227 48.9192C84.2282 49.5682 83.46 50.7811 83.46 52.398C83.46 53.9025 84.1742 55.1058 85.0459 55.8685C85.7945 56.5236 86.5996 56.8175 87.0898 56.9605C88.0811 57.2497 89.1709 57.305 90.0811 57.305C92.3182 57.305 94.5645 56.7903 96.4725 55.4012C94.779 58.1002 93.8454 61.0487 93.8454 64.1951C93.8454 67.1954 94.5984 70.2173 96.8405 72.4594C99.0826 74.7015 102.104 75.4544 105.105 75.4544C107.572 75.4544 110.227 74.5372 112.84 73.2671C115.541 71.9541 118.62 70.0502 122.05 67.6255L122.056 67.6207C124.606 65.8102 127.061 63.9874 129.419 62.152C129.412 61.9297 129.409 61.7033 129.409 61.4727C129.409 59.6776 129.76 57.8343 130.462 55.9427C127.08 58.7155 123.468 61.4663 119.624 64.1951C112.97 68.9005 108.13 71.2532 105.105 71.2532C100.399 71.2532 98.0467 68.9005 98.0467 64.1951C98.0467 61.6407 98.8869 59.1872 100.567 56.8345C101.77 55.17 103.862 53.1239 106.845 50.6962C108.199 49.5943 109.736 48.4139 111.457 47.1548C110.314 47.1548 108.768 46.886 106.819 46.3482C106.507 46.2515 106.214 46.1523 105.939 46.0505C105.074 45.7311 104.388 45.3863 103.878 45.0162C103.759 44.9293 103.649 44.8409 103.548 44.7511C103.361 44.5826 103.207 44.4091 103.088 44.2308C102.974 44.3319 102.854 44.4374 102.729 44.5475C101.982 45.2036 101.041 46.0182 99.9057 46.9913C98.3204 48.3501 96.3563 50.0179 94.0135 51.9947C93.3955 52.4478 92.6639 52.7622 91.8187 52.9376C91.7088 52.9604 91.597 52.9809 91.4832 52.999C91.3841 53.0148 91.2836 53.0288 91.1817 53.041C90.832 53.0828 90.4651 53.1038 90.0811 53.1038C88.4678 53.1038 87.6612 52.8685 87.6612 52.398C87.6612 51.8602 88.199 51.1544 89.2745 50.2806C89.5425 50.0954 89.8114 49.9092 90.0811 49.7219C90.2101 49.6323 90.3394 49.5425 90.4688 49.4525C90.7615 49.2488 91.0552 49.0439 91.3499 48.8378C91.4266 48.7842 91.5034 48.7304 91.5802 48.6766C93.4459 47.3702 95.3527 46.0143 97.3008 44.6089C98.4755 43.7614 99.6652 42.8959 100.87 42.0125C100.557 41.7975 100.261 41.5832 99.9807 41.3696C99.0053 40.6257 98.2281 39.8904 97.6491 39.1637C97.251 38.664 96.9466 38.1684 96.7359 37.6768C96.5342 37.2063 96.4334 36.8702 96.4334 36.6685C96.4334 35.3241 96.8703 34.4503 97.7442 34.0469C98.618 33.5764 100.03 33.3411 101.979 33.3411C102.718 33.3411 104.903 34.2486 108.533 36.0635C112.163 37.8785 114.448 38.7859 115.389 38.7859C116.398 38.7859 117.776 38.5171 119.523 37.9793C121.271 37.3743 122.649 37.0718 123.657 37.0718C124.733 37.0718 125.506 37.3071 125.977 37.7777C127.657 39.9959 128.497 41.3403 128.497 41.8108C128.497 42.2814 128.262 42.6847 127.791 43.0208C127.388 43.2897 126.01 44.2308 123.657 45.844C121.372 47.4573 119.12 49.1042 116.902 50.7847C114.684 52.4652 112.6 54.3474 110.65 56.4312C110.532 56.558 110.417 56.6833 110.305 56.8072C109.991 57.1562 109.706 57.4933 109.449 57.8186C108.922 58.4868 108.516 59.105 108.23 59.6731C107.894 60.3425 107.726 60.9424 107.726 61.4727C107.726 61.6743 107.894 61.7752 108.23 61.7752C108.655 61.7752 109.198 61.6743 109.859 61.4727C110.434 61.297 111.099 61.0449 111.853 60.7163C112.182 60.5729 112.528 60.4151 112.891 60.2426C117.398 58.1015 124.527 53.7169 134.279 47.0886C134.476 46.9551 134.673 46.8207 134.872 46.6853C134.88 46.68 134.887 46.6747 134.895 46.6695C136.281 45.7245 137.72 44.7352 139.21 43.7015C139.977 42.9708 140.766 42.2711 141.578 41.6023C141.823 41.4001 142.071 41.2007 142.32 41.0042C143.078 40.4074 143.854 39.8367 144.649 39.2921C144.743 39.2275 144.838 39.1633 144.933 39.0995C145.561 38.6764 146.201 38.2694 146.852 37.8785C147.374 37.5582 147.888 37.2557 148.396 36.971C148.134 36.694 147.821 36.4314 147.453 36.2032C146.615 35.6844 145.724 35.4922 144.933 35.4922H143.598L142.508 36.2621C138.915 38.8004 135.588 41.113 132.524 43.2013C132.636 42.7692 132.699 42.3054 132.699 41.8108C132.699 40.7117 132.289 39.8237 132.152 39.529C131.944 39.0792 131.686 38.6325 131.43 38.223C130.911 37.3937 130.194 36.3875 129.325 35.2407L129.151 35.0108L128.947 34.8069C127.321 33.1811 125.189 32.8706 123.657 32.8706C121.964 32.8706 120.084 33.344 118.223 33.9838C116.877 34.3944 116.036 34.5419 115.586 34.5763C115.581 34.5747 115.575 34.5731 115.569 34.5715C115.354 34.5109 115.012 34.3961 114.52 34.2006C113.537 33.8103 112.179 33.1892 110.412 32.3058C108.562 31.3807 107.008 30.6504 105.784 30.1419C105.175 29.8889 104.587 29.6655 104.05 29.4988C103.616 29.3643 102.833 29.1399 101.979 29.1399C99.9258 29.1399 97.6798 29.3513 95.8647 30.2887C94.8605 30.7754 94.1128 31.4392 93.5656 32.1909C93.225 33.1839 92.8164 34.2115 92.3398 35.2738ZM115.721 34.6094C115.722 34.6096 115.717 34.6089 115.708 34.6068C115.716 34.6083 115.721 34.6092 115.721 34.6094Z" fill="black"/>
<path fill-rule="evenodd" clip-rule="evenodd" d="M99.0486 25.2325V25.3755C99.0486 28.2161 98.4123 31.2222 97.2515 34.3635C96.7559 34.7952 96.4855 35.4695 96.4406 36.3865C95.6403 38.2423 94.6714 40.1414 93.5556 42.0781C90.1369 48.1285 85.7507 53.9153 80.4314 59.4446C74.9722 65.1193 68.4071 69.9214 60.7849 73.8737C53.039 77.8901 45.2691 80.0178 37.5155 80.0923L37.4953 80.0925H37.4751C36.1392 80.0925 34.7697 79.5595 33.8721 79.1771C32.6291 78.6901 31.4642 78.0179 30.4491 77.1156L30.3933 77.066L30.3394 77.0145C28.6846 75.435 27.7013 73.4822 27.2113 71.3592L18.4123 77.922C16.8806 79.5237 14.7599 81 12.066 81C10.894 81 9.87455 80.6523 9.07799 80.254L8.50915 79.9696L5.75626 77.3314C4.78042 76.492 4.40603 75.4515 4.25685 74.9045C4.06853 74.214 4.0332 73.5551 4.0332 73.0681C4.0332 72.0517 4.32124 71.134 4.5468 70.525C4.80052 69.84 5.14102 69.1185 5.52498 68.3889C6.32603 66.8669 7.83334 64.5344 9.90485 61.5268C12.0553 58.3371 15.0995 54.1677 19.0108 49.0425L19.0214 49.0287L19.032 49.015C19.6371 48.2355 20.2668 47.4454 20.9209 46.6446C18.5358 47.5786 16.1726 48.1295 13.8809 48.1295C10.6074 48.1295 7.59659 46.7087 4.9286 44.6067L4.8982 44.5827L4.86824 44.5582C1.74845 42.0057 0 38.5922 0 34.551C0 27.2461 4.69819 21.0717 11.9463 15.9047C19.1594 10.7627 27.4592 6.84029 36.7971 4.10212L36.8052 4.09974C46.0284 1.41539 54.1105 0 60.9685 0C67.5131 0 73.1353 0.621671 77.7035 1.99212C81.9813 3.27548 85.6134 4.90353 88.334 7.0216C90.8761 8.95121 93.0361 11.1821 94.7803 13.719L94.7973 13.7438L94.8139 13.7687C97.2494 17.422 98.7743 21.21 99.0388 25.0897L99.0486 25.2325ZM85.7726 10.3519C83.6216 8.67137 80.5295 7.22614 76.4963 6.01618C72.4631 4.80622 67.2871 4.20124 60.9685 4.20124C54.6498 4.20124 46.9867 5.51203 37.9793 8.13361C29.039 10.7552 21.1743 14.4859 14.3851 19.3257C7.59585 24.1656 4.20124 29.2407 4.20124 34.551C4.20124 37.2398 5.31037 39.4917 7.52863 41.3066C9.74689 43.0544 11.8643 43.9282 13.8809 43.9282C15.8975 43.9282 18.2166 43.3232 20.8382 42.1133C23.4597 40.9033 25.7788 39.4581 27.7954 37.7776C29.7311 36.1 31.5119 34.4224 33.1379 32.7449C33.2059 32.6747 33.2736 32.6046 33.3411 32.5344C34.6828 31.0854 35.7674 29.8078 36.5949 28.7015C36.6597 28.6149 36.7229 28.5293 36.7846 28.4448C36.8067 28.4144 36.8287 28.3841 36.8505 28.354C36.9634 28.1977 37.0707 28.0452 37.1726 27.8963C37.5617 27.3275 37.8642 26.8388 38.0801 26.43C38.349 25.9208 38.4834 25.5357 38.4834 25.2747C38.4834 24.7369 38.349 24.4681 38.0801 24.4681C37.7664 24.4681 37.1838 24.7369 36.3324 25.2747C35.9066 25.5436 35.4137 25.8797 34.8535 26.283C34.8482 26.2882 34.8428 26.2933 34.8374 26.2985C34.7637 26.3692 34.6871 26.4408 34.6074 26.5131C33.6552 27.3779 32.2744 28.359 30.4648 29.4563C28.545 30.6204 26.1428 31.9153 23.2581 33.3411C20.902 34.5191 18.853 35.4571 17.1111 36.155C17.0353 36.1854 16.96 36.2153 16.8854 36.2447C16.8603 36.2547 16.8352 36.2645 16.8102 36.2743C16.2834 36.4812 15.7858 36.6652 15.3175 36.8263C14.6523 37.0551 14.0462 37.2378 13.4991 37.3743C12.6908 37.5759 12.0114 37.6768 11.461 37.6768C11.2593 37.6768 11.1585 37.5759 11.1585 37.3743C11.1585 37.0882 11.2593 36.7518 11.461 36.3649C11.8014 35.7119 12.4291 34.9153 13.344 33.975C13.543 33.7705 13.7556 33.5592 13.9817 33.3411C14.2461 33.0767 14.5263 32.8091 14.8225 32.5381C16.6351 30.8797 19.0436 29.0972 22.0481 27.1905C25.6108 24.905 29.5432 22.7539 33.8452 20.7373C38.2145 18.7207 43.2224 17.0402 48.8689 15.6959C50.7451 15.2268 52.651 14.8357 54.5866 14.5225C54.7038 14.5035 54.8211 14.4848 54.9385 14.4664C55.1229 14.4376 55.3076 14.4094 55.4925 14.3819C57.5534 14.0757 59.6476 13.8571 61.7751 13.7259C62.7559 13.6654 63.7437 13.6236 64.7387 13.6003C64.809 13.5986 64.8793 13.5971 64.9496 13.5956C65.5025 13.5842 66.0576 13.5784 66.6149 13.5784C66.841 13.5784 67.0657 13.5799 67.2891 13.5829C73.1762 13.661 78.1275 14.7686 82.1427 16.9058C83.8232 17.8469 85.4029 19.0905 86.8818 20.6365C88.4278 22.1826 89.2008 23.695 89.2008 25.1739C89.2008 29.4759 86.0079 34.9208 79.622 41.5083C73.2361 48.0286 66.178 53.6751 58.4477 58.4477C53.3122 61.6184 49.0073 63.7358 45.5331 64.8001C44.6169 65.0807 43.7585 65.2882 42.9578 65.4223C42.2245 65.5452 41.5397 65.6066 40.9033 65.6066C40.6344 65.6066 40.4664 65.4386 40.3992 65.1025C40.4345 64.8195 40.6026 64.4387 40.9033 63.9601C41.2658 63.3833 41.821 62.6645 42.5689 61.8037C42.7686 61.5739 42.982 61.334 43.2091 61.0839C44.1077 60.0947 45.2213 58.9471 46.5498 57.6411L47.6589 56.4311C47.9278 56.2295 48.0622 55.9606 48.0622 55.6245C48.0622 55.2212 47.9278 54.8178 47.6589 54.4145L45.7432 52.0954C45.5415 51.8266 45.239 51.6921 44.8357 51.6921C44.4996 51.6921 44.0963 51.8266 43.6257 52.0954C40.6253 53.4851 37.7437 54.9415 34.9807 56.4647C34.9719 56.4696 34.9631 56.4744 34.9544 56.4793C34.9207 56.4978 34.8871 56.5164 34.8535 56.5349C34.7612 56.586 34.669 56.6371 34.5769 56.6883C33.6971 57.1774 32.8295 57.6734 31.974 58.1762C31.8901 58.2255 31.8063 58.2749 31.7227 58.3243C31.6057 58.3934 31.489 58.4626 31.3726 58.532C31.3511 58.5448 31.3296 58.5576 31.3081 58.5704C30.5163 59.0425 29.7351 59.5206 28.9644 60.0046C28.3104 60.4153 27.664 60.8304 27.0251 61.2497C26.9918 61.2715 26.9585 61.2934 26.9252 61.3153C26.6424 61.5013 26.3611 61.6882 26.0813 61.8759C25.8797 62.0776 25.678 62.1784 25.4763 62.1784C25.4731 62.1784 25.4698 62.1784 25.4666 62.1782C25.3387 62.1734 25.2747 62.0727 25.2747 61.8759C25.2747 61.7415 25.3419 61.565 25.4763 61.3466C25.4857 61.3313 25.4955 61.3158 25.5055 61.3001C25.5345 61.2549 25.5662 61.208 25.6006 61.1594C25.7252 60.9837 25.8854 60.7856 26.0813 60.5651C26.5224 59.957 27.0232 59.2948 27.5839 58.5784C28.7537 57.0835 30.1839 55.3528 31.8745 53.3863C37.5232 46.8159 46.0784 37.6134 57.5402 25.7788L64.5983 18.9224C64.9171 18.6674 65.0847 18.2915 65.1011 17.7947C65.102 17.7676 65.1025 17.7402 65.1025 17.7124C65.1025 17.1747 64.5647 16.6369 63.4892 16.0992C62.6826 15.6286 62.1112 15.3934 61.7751 15.3934C60.4979 15.3934 59.1535 16.0656 57.7419 17.41C57.2499 17.7754 56.7597 18.1434 56.2713 18.5138C49.7532 23.4568 43.555 28.8362 37.6768 34.6519C31.4253 40.8361 26.3166 46.4826 22.3506 51.5913C18.4519 56.7 15.4606 60.8004 13.3768 63.8925C11.2929 66.9174 9.91494 69.0685 9.24274 70.3456C8.57054 71.6228 8.23444 72.5303 8.23444 73.0681C8.23444 73.673 8.33527 74.0427 8.53693 74.1772L10.9568 76.4963C11.3602 76.6979 11.7299 76.7988 12.066 76.7988C13.2087 76.7988 14.3851 76.1266 15.595 74.7822L33.8452 61.1701C34.383 60.834 34.7191 60.666 34.8535 60.666H34.9544C34.9544 60.7135 34.9208 60.7863 34.8535 60.8842C34.7356 61.056 34.5144 61.3053 34.1898 61.6321C34.1785 61.6435 34.167 61.6549 34.1555 61.6665C34.1529 61.6691 34.1503 61.6717 34.1477 61.6743C34.0655 61.7531 33.9847 61.8332 33.9054 61.9144C32.4297 63.4272 31.4685 65.3638 31.022 67.7241C31.022 67.9895 31.0289 68.2487 31.0426 68.5016C31.1713 70.8752 31.9038 72.6999 33.2402 73.9755C33.8452 74.5133 34.5846 74.9502 35.4585 75.2863C36.3996 75.6896 37.0718 75.8913 37.4751 75.8913C44.466 75.8241 51.5913 73.9083 58.851 70.144C66.1108 66.3797 72.295 61.8423 77.4037 56.532C82.5125 51.2216 86.6801 45.7095 89.9066 39.9959C93.2004 34.2822 94.8473 29.4087 94.8473 25.3755C94.6457 22.4178 93.4693 19.3257 91.3183 16.0992C89.8394 13.9481 87.9909 12.0324 85.7726 10.3519ZM47.0213 20.4985C45.1689 20.9987 43.4044 21.5373 41.7264 22.1132C41.8969 22.3455 42.0329 22.5762 42.1403 22.7909C42.4035 23.3172 42.5401 23.8371 42.6107 24.2828C44.0633 22.9977 45.5336 21.7362 47.0213 20.4985ZM69.302 17.8602C69.2704 19.2285 68.794 20.8285 67.4275 22.0313L60.5137 28.7476C53.1818 36.3184 47.086 42.7657 42.2024 48.1057C42.9074 47.78 43.8076 47.4909 44.8357 47.4909C46.2309 47.4909 47.8682 48.006 49.0227 49.4688L51.0351 51.9049L51.1546 52.0841C51.7893 53.0362 52.2635 54.2368 52.2635 55.6245C52.2635 56.2305 52.1624 56.8172 51.9694 57.3663C53.3016 56.6386 54.7249 55.8088 56.2407 54.8729C63.6769 50.2818 70.4659 44.8516 76.6127 38.5767C79.6635 35.4287 81.8141 32.6915 83.1821 30.3588C84.5657 27.9994 84.9996 26.3079 84.9996 25.1739C84.9996 25.1726 84.9995 25.168 84.9984 25.1591C84.9972 25.1501 84.9945 25.1338 84.9883 25.1096C84.9759 25.0616 84.947 24.9733 84.8801 24.8424C84.7414 24.5709 84.458 24.1542 83.911 23.6072L83.878 23.5742L83.8458 23.5405C82.6357 22.2755 81.3941 21.3072 80.1284 20.593C77.2879 19.09 73.7178 18.1329 69.302 17.8602Z" fill="black"/>
</svg>
